<svg width="170" height="70" viewBox="0 0 170 70" fill="none" xmlns="http://www.w3.org/2000/svg">
<path d="M31.0622 9.02471C29.0701 11.3889 25.8819 13.2542 22.6941 12.9875C22.2956 9.79089 23.8562 6.39385 25.6827 4.29575C27.6749 1.86501 31.1618 0.133191 33.9844 0C34.3165 3.33011 33.0216 6.59363 31.0626 9.02471H31.0622ZM33.9512 13.6205C29.3353 13.3541 25.3838 16.251 23.1921 16.251C20.9675 16.251 17.6133 13.7537 13.9606 13.8203C9.21227 13.8869 4.79559 16.584 2.37143 20.8801C-2.6097 29.4719 1.07651 42.1933 5.89129 49.1865C8.24905 52.6498 11.0716 56.4461 14.7907 56.3129C18.3109 56.1797 19.7055 54.0154 23.9561 54.0154C28.2396 54.0154 29.4685 56.3129 33.1876 56.2463C37.0395 56.1797 39.4636 52.7834 41.8214 49.3197C44.5108 45.3903 45.6069 41.5603 45.6733 41.3605C45.6069 41.294 38.2351 38.4636 38.1687 29.9381C38.1023 22.8117 43.9799 19.415 44.2455 19.2152C40.9246 14.2864 35.7445 13.7537 33.9512 13.6205ZM60.6167 3.96277V55.8804H68.6525V38.1307H79.7769C89.938 38.1307 97.0777 31.1375 97.0777 21.0136C97.0777 10.8901 90.0708 3.96311 80.0425 3.96311H60.6163L60.6167 3.96277ZM68.6525 10.7565H77.9171C84.8908 10.7565 88.8755 14.4862 88.8755 21.0466C88.8755 27.6069 84.8908 31.3702 77.8839 31.3702H68.6525V10.7565ZM111.755 56.2796C116.803 56.2796 121.485 53.7157 123.61 49.6527H123.776V55.8801H131.214V30.038C131.214 22.5453 125.237 17.7164 116.039 17.7164C107.504 17.7164 101.195 22.6119 100.963 29.3387H108.202C108.8 26.1418 111.755 24.0437 115.806 24.0437C120.721 24.0437 123.477 26.3416 123.477 30.5711V33.4347L113.448 34.034C104.117 34.6001 99.0702 38.43 99.0702 45.0906C99.0702 51.8174 104.283 56.2796 111.755 56.2796ZM113.913 50.1189C109.63 50.1189 106.907 48.0544 106.907 44.8904C106.907 41.6273 109.53 39.729 114.544 39.4293L123.477 38.8632V41.7934C123.477 46.6556 119.36 50.1189 113.914 50.1189H113.913ZM141.143 70C148.98 70 152.666 67.0032 155.887 57.9116L170 18.2159H161.831L152.367 48.8865H152.201L142.737 18.2159H134.336L147.95 56.0133L147.22 58.3111C145.991 62.2073 143.999 63.7061 140.446 63.7061C139.815 63.7061 138.587 63.6395 138.088 63.5729V69.8002C138.553 69.9334 140.545 70 141.143 70Z" fill="black"/>
</svg>
