<svg width="78" height="78" viewBox="0 0 78 78" fill="none" xmlns="http://www.w3.org/2000/svg">
<path d="M69.3333 0H8.66667C3.9 0 0 3.9 0 8.66667V69.3333C0 74.1 3.9 78 8.66667 78H69.3333C74.1 78 78 74.1 78 69.3333V8.66667C78 3.9 74.1 0 69.3333 0ZM19.5 65C15.9033 65 13 62.0967 13 58.5C13 54.9033 15.9033 52 19.5 52C23.0967 52 26 54.9033 26 58.5C26 62.0967 23.0967 65 19.5 65ZM19.5 26C15.9033 26 13 23.0967 13 19.5C13 15.9033 15.9033 13 19.5 13C23.0967 13 26 15.9033 26 19.5C26 23.0967 23.0967 26 19.5 26ZM39 45.5C35.4033 45.5 32.5 42.5967 32.5 39C32.5 35.4033 35.4033 32.5 39 32.5C42.5967 32.5 45.5 35.4033 45.5 39C45.5 42.5967 42.5967 45.5 39 45.5ZM58.5 65C54.9033 65 52 62.0967 52 58.5C52 54.9033 54.9033 52 58.5 52C62.0967 52 65 54.9033 65 58.5C65 62.0967 62.0967 65 58.5 65ZM58.5 26C54.9033 26 52 23.0967 52 19.5C52 15.9033 54.9033 13 58.5 13C62.0967 13 65 15.9033 65 19.5C65 23.0967 62.0967 26 58.5 26Z" fill="#FF0000"/>
</svg>
