<svg width="91" height="70" viewBox="0 0 91 70" fill="none" xmlns="http://www.w3.org/2000/svg">
<path d="M16.4162 69.8453V65.1994C16.4162 63.4181 15.3319 62.2569 13.4733 62.2569C12.5442 62.2569 11.5375 62.5666 10.8405 63.5733C10.2987 62.7214 9.52445 62.2569 8.3629 62.2569C7.5883 62.2569 6.8144 62.489 6.19465 63.3408V62.4117H4.56854V69.8453H6.19465V65.7412C6.19465 64.4251 6.89165 63.8054 7.97595 63.8054C9.05955 63.8054 9.60205 64.5024 9.60205 65.7412V69.8453H11.2282V65.7412C11.2282 64.4251 12.0021 63.8054 13.0088 63.8054C14.0931 63.8054 14.6349 64.5024 14.6349 65.7412V69.8453H16.4162ZM40.4976 62.4117H37.8652V60.1662H36.2391V62.4117H34.7678V63.8826H36.2387V67.29C36.2387 68.9938 36.9357 70.0001 38.7943 70.0001C39.4913 70.0001 40.2652 69.768 40.8077 69.4583L40.3428 68.0643C39.8782 68.374 39.3364 68.4516 38.9491 68.4516C38.1749 68.4516 37.8652 67.9871 37.8652 67.2124V63.8826H40.4976V62.4117ZM54.2811 62.2565C53.352 62.2565 52.7326 62.7214 52.3453 63.3408V62.4117H50.7192V69.8453H52.3453V65.6639C52.3453 64.4251 52.8871 63.7281 53.8938 63.7281C54.2035 63.7281 54.5908 63.8057 54.9005 63.883L55.365 62.3345C55.0553 62.2569 54.5908 62.2569 54.2811 62.2569V62.2565ZM33.4514 63.0311C32.6768 62.489 31.5929 62.2569 30.4313 62.2569C28.5731 62.2569 27.3343 63.186 27.3343 64.6572C27.3343 65.8964 28.2634 66.593 29.8895 66.8255L30.6638 66.9031C31.5156 67.0576 31.9802 67.2901 31.9802 67.6774C31.9802 68.2192 31.3608 68.6065 30.2765 68.6065C29.1925 68.6065 28.3407 68.2192 27.7985 67.8322L27.0243 69.071C27.8761 69.6904 29.0377 70.0001 30.1989 70.0001C32.3671 70.0001 33.6063 68.9938 33.6063 67.5998C33.6063 66.2833 32.5996 65.5863 31.0507 65.3542L30.2765 65.2766C29.5795 65.199 29.0377 65.0445 29.0377 64.58C29.0377 64.0378 29.5795 63.7281 30.4313 63.7281C31.3608 63.7281 32.2899 64.1151 32.7544 64.3475L33.4514 63.0311ZM76.6596 62.2569C75.7301 62.2569 75.1107 62.7214 74.7234 63.3408V62.4117H73.0973V69.8453H74.7234V65.6639C74.7234 64.4251 75.2656 63.7281 76.2719 63.7281C76.582 63.7281 76.9693 63.8057 77.279 63.883L77.7435 62.3345C77.4338 62.2569 76.9693 62.2569 76.6596 62.2569ZM55.9072 66.1285C55.9072 68.374 57.4557 70.0001 59.8564 70.0001C60.9403 70.0001 61.7146 69.768 62.4888 69.1486L61.7146 67.8322C61.0952 68.2968 60.4758 68.5289 59.7788 68.5289C58.4624 68.5289 57.5333 67.5997 57.5333 66.1285C57.5333 64.7348 58.4624 63.8054 59.7788 63.7281C60.4758 63.7281 61.0952 63.9602 61.7146 64.4251L62.4888 63.1087C61.7146 62.489 60.9403 62.2569 59.8564 62.2569C57.4557 62.2569 55.9072 63.883 55.9072 66.1285ZM70.9294 66.1285V62.4117H69.3033V63.3408C68.7611 62.6442 67.9869 62.2569 66.9802 62.2569C64.8895 62.2569 63.2634 63.883 63.2634 66.1285C63.2634 68.374 64.8895 70.0001 66.9802 70.0001C68.0641 70.0001 68.8387 69.6132 69.3033 68.9162V69.8453H70.9294V66.1285ZM64.9668 66.1285C64.9668 64.8121 65.8186 63.7281 67.2123 63.7281C68.5287 63.7281 69.4581 64.7348 69.4581 66.1285C69.4581 67.4449 68.5287 68.5289 67.2123 68.5289C65.8186 68.4513 64.9668 67.4449 64.9668 66.1285ZM45.5312 62.2569C43.3629 62.2569 41.8141 63.8054 41.8141 66.1285C41.8141 68.4516 43.3626 70.0001 45.6084 70.0001C46.6924 70.0001 47.7767 69.6904 48.6285 68.9938L47.8539 67.8322C47.2345 68.2968 46.4603 68.6065 45.686 68.6065C44.6793 68.6065 43.6726 68.1419 43.4402 66.8251H48.9382V66.2061C49.0158 63.8054 47.6218 62.2569 45.5308 62.2569H45.5312ZM45.5312 63.6505C46.5375 63.6505 47.2349 64.2703 47.3894 65.4318H43.5178C43.6726 64.4251 44.3696 63.6505 45.5312 63.6505ZM85.874 66.1285V59.4692H84.2479V63.3408C83.7058 62.6442 82.9315 62.2569 81.9248 62.2569C79.8342 62.2569 78.2081 63.883 78.2081 66.1285C78.2081 68.374 79.8342 70.0001 81.9248 70.0001C83.0091 70.0001 83.7834 69.6132 84.2479 68.9162V69.8453H85.874V66.1285ZM79.9118 66.1285C79.9118 64.8121 80.7633 63.7281 82.1573 63.7281C83.4737 63.7281 84.4028 64.7348 84.4028 66.1285C84.4028 67.4449 83.4737 68.5289 82.1573 68.5289C80.7633 68.4513 79.9118 67.4449 79.9118 66.1285ZM25.553 66.1285V62.4117H23.9269V63.3408C23.3848 62.6442 22.6105 62.2569 21.6038 62.2569C19.5132 62.2569 17.8871 63.883 17.8871 66.1285C17.8871 68.374 19.5132 70.0001 21.6038 70.0001C22.6881 70.0001 23.4624 69.6132 23.9269 68.9162V69.8453H25.553V66.1285ZM19.5132 66.1285C19.5132 64.8121 20.365 63.7281 21.7587 63.7281C23.0751 63.7281 24.0045 64.7348 24.0045 66.1285C24.0045 67.4449 23.0751 68.5289 21.7587 68.5289C20.365 68.4513 19.5132 67.4449 19.5132 66.1285Z" fill="black"/>
<path d="M32.9094 5.9624H57.3009V49.7899H32.9094V5.9624Z" fill="#FF5F00"/>
<path d="M34.4582 27.8762C34.4582 18.9714 38.6395 11.073 45.0663 5.96226C40.3432 2.2455 34.381 0 27.8765 0C12.4667 0 0 12.4667 0 27.8762C0 43.2854 12.4667 55.7524 27.8762 55.7524C34.3806 55.7524 40.3429 53.5069 45.0663 49.7898C38.6395 44.7566 34.4582 36.781 34.4582 27.8762Z" fill="#EB001B"/>
<path d="M90.2102 27.8762C90.2102 43.2854 77.7435 55.7524 62.334 55.7524C55.8296 55.7524 49.8673 53.5069 45.1439 49.7898C51.6483 44.6794 55.7524 36.781 55.7524 27.8762C55.7524 18.9714 51.5707 11.073 45.1439 5.96226C49.867 2.2455 55.8296 0 62.334 0C77.7435 0 90.2106 12.5443 90.2106 27.8762H90.2102Z" fill="#F79E1B"/>
</svg>
