<svg width="112" height="70" viewBox="0 0 112 70" fill="none" xmlns="http://www.w3.org/2000/svg">
<path d="M4.48 0C2.00626 0 0 1.99611 0 4.4586V65.5414C0 68.0038 2.00726 70 4.48 70H107.52C109.994 70 112 68.0039 112 65.5414V4.4586C112 1.99623 109.993 0 107.52 0H4.48ZM66.892 20.8613C69.6179 20.8613 71.8024 21.4606 73.1955 22.0178L72.2435 27.9777L71.6135 27.6607C70.3157 27.1035 68.6488 26.5672 66.3495 26.6052C63.597 26.6052 62.3245 27.8272 62.3245 28.9705C62.3085 30.2587 63.8113 31.1083 66.2689 32.3806C70.3252 34.3435 72.2 36.7235 72.1736 39.8522C72.1189 45.5611 67.3213 49.2501 59.9305 49.2501C56.7774 49.2156 53.7396 48.5512 52.0975 47.7836L53.0845 41.6251L53.9911 42.0641C56.3002 43.0909 57.7954 43.5062 60.6095 43.5062C62.6303 43.5062 64.7993 42.6641 64.8165 40.8206C64.8296 39.6168 63.9099 38.7585 61.1729 37.4104C58.506 36.0947 54.9704 33.8907 55.0096 29.9388C55.0513 24.5928 59.9446 20.8613 66.892 20.8613ZM9.90494 21.7357H21.2555C22.7839 21.7932 24.018 22.283 24.444 23.9336L26.8905 36.5013C26.8909 36.5024 26.8901 36.507 26.8905 36.5082L27.6255 40.2737L34.5169 21.7357H41.972L30.8909 48.8705L23.4429 48.8774L17.514 26.9814C21.0418 28.8415 24.0452 30.9935 25.7845 33.955C25.3361 33.0179 24.7452 31.9601 23.9891 30.9176C23.1085 29.7035 21.2069 28.136 20.412 27.4691C17.6422 25.1454 13.8807 23.2686 9.81747 22.2756L9.90494 21.7357ZM44.9365 21.767H52.2271L47.6664 48.86H40.376L44.9365 21.767ZM86.114 21.767H91.6371L97.4191 48.86H90.79C90.79 48.86 90.1323 45.7475 89.9185 44.7984C88.8766 44.7984 81.5894 44.7881 80.7695 44.7881C80.4921 45.5215 79.2645 48.8599 79.2645 48.8599H71.764L82.3725 24.0172C83.1236 22.2519 84.4039 21.767 86.114 21.767ZM86.6565 29.054C86.2978 30.0618 85.6732 31.6892 85.715 31.6177C85.715 31.6177 83.4708 37.5744 82.8836 39.1207L88.7809 39.1172C88.4968 37.7738 87.136 31.3671 87.136 31.3671L86.6565 29.0542V29.054Z" fill="#005CB0"/>
</svg>
